<svg xmlns="http://www.w3.org/2000/svg" width="60.577" height="86.867" viewBox="0 0 60.577 86.867">
  <g id="Grupo_159" data-name="Grupo 159" transform="translate(-4017.744 -2020.307)">
    <g id="Grupo_157" data-name="Grupo 157">
      <g id="Grupo_130" data-name="Grupo 130">
        <g id="Grupo_129" data-name="Grupo 129">
          <path id="Caminho_59" data-name="Caminho 59" d="M4059.465,2030.822h11.781a5.575,5.575,0,0,1,5.575,5.574v63.7a5.575,5.575,0,0,1-5.575,5.575h-46.427a5.575,5.575,0,0,1-5.575-5.575v-63.7a5.575,5.575,0,0,1,5.575-5.574H4036.6" fill="none" stroke="#050c35" stroke-width="3"/>
        </g>
      </g>
      <g id="Grupo_156" data-name="Grupo 156">
        <g id="Grupo_135" data-name="Grupo 135">
          <g id="Grupo_132" data-name="Grupo 132">
            <g id="Grupo_131" data-name="Grupo 131">
              <path id="Caminho_60" data-name="Caminho 60" d="M4058.463,2048.7h-33.139a.846.846,0,0,1,0-1.693h33.139a.846.846,0,0,1,0,1.693Z"/>
            </g>
          </g>
          <g id="Grupo_134" data-name="Grupo 134">
            <g id="Grupo_133" data-name="Grupo 133">
              <path id="Caminho_61" data-name="Caminho 61" d="M4070.6,2041.629a.538.538,0,0,0-.76-.04l-5.7,5.121-2.771-1.765a.276.276,0,0,0-.359.41l2.643,3.133a.64.64,0,0,0,.061.065.77.77,0,0,0,1.088-.034l.06-.064,5.725-6.1A.541.541,0,0,0,4070.6,2041.629Z"/>
            </g>
          </g>
        </g>
        <g id="Grupo_140" data-name="Grupo 140">
          <g id="Grupo_137" data-name="Grupo 137">
            <g id="Grupo_136" data-name="Grupo 136">
              <path id="Caminho_62" data-name="Caminho 62" d="M4058.463,2060.269h-33.139a.847.847,0,0,1,0-1.693h33.139a.847.847,0,0,1,0,1.693Z"/>
            </g>
          </g>
          <g id="Grupo_139" data-name="Grupo 139">
            <g id="Grupo_138" data-name="Grupo 138">
              <path id="Caminho_63" data-name="Caminho 63" d="M4070.6,2053.2a.538.538,0,0,0-.76-.04l-5.7,5.121-2.771-1.766a.276.276,0,0,0-.359.411l2.643,3.133a.64.64,0,0,0,.061.065.77.77,0,0,0,1.088-.034l.06-.065,5.725-6.1A.541.541,0,0,0,4070.6,2053.2Z"/>
            </g>
          </g>
        </g>
        <g id="Grupo_145" data-name="Grupo 145">
          <g id="Grupo_142" data-name="Grupo 142">
            <g id="Grupo_141" data-name="Grupo 141">
              <path id="Caminho_64" data-name="Caminho 64" d="M4058.463,2071.84h-33.139a.847.847,0,0,1,0-1.693h33.139a.847.847,0,0,1,0,1.693Z"/>
            </g>
          </g>
          <g id="Grupo_144" data-name="Grupo 144">
            <g id="Grupo_143" data-name="Grupo 143">
              <path id="Caminho_65" data-name="Caminho 65" d="M4070.6,2064.771a.539.539,0,0,0-.76-.041l-5.7,5.122-2.771-1.766a.276.276,0,0,0-.359.411l2.643,3.133c.019.022.039.044.061.065a.77.77,0,0,0,1.088-.034l.06-.065,5.725-6.1A.539.539,0,0,0,4070.6,2064.771Z"/>
            </g>
          </g>
        </g>
        <g id="Grupo_150" data-name="Grupo 150">
          <g id="Grupo_147" data-name="Grupo 147">
            <g id="Grupo_146" data-name="Grupo 146">
              <path id="Caminho_66" data-name="Caminho 66" d="M4058.463,2083.411h-33.139a.846.846,0,0,1,0-1.693h33.139a.846.846,0,0,1,0,1.693Z"/>
            </g>
          </g>
          <g id="Grupo_149" data-name="Grupo 149">
            <g id="Grupo_148" data-name="Grupo 148">
              <path id="Caminho_67" data-name="Caminho 67" d="M4070.6,2076.342a.537.537,0,0,0-.76-.041l-5.7,5.122-2.771-1.766a.276.276,0,0,0-.359.41l2.643,3.134c.019.022.039.044.061.065a.771.771,0,0,0,1.088-.034l.06-.065,5.725-6.1A.539.539,0,0,0,4070.6,2076.342Z"/>
            </g>
          </g>
        </g>
        <g id="Grupo_155" data-name="Grupo 155">
          <g id="Grupo_152" data-name="Grupo 152">
            <g id="Grupo_151" data-name="Grupo 151">
              <path id="Caminho_68" data-name="Caminho 68" d="M4058.463,2094.982h-33.139a.846.846,0,0,1,0-1.693h33.139a.846.846,0,0,1,0,1.693Z"/>
            </g>
          </g>
          <g id="Grupo_154" data-name="Grupo 154">
            <g id="Grupo_153" data-name="Grupo 153">
              <path id="Caminho_69" data-name="Caminho 69" d="M4070.6,2087.912a.538.538,0,0,0-.76-.04l-5.7,5.122-2.771-1.766a.276.276,0,0,0-.359.41l2.643,3.134c.019.022.039.044.061.065a.77.77,0,0,0,1.088-.035l.06-.064,5.725-6.1A.541.541,0,0,0,4070.6,2087.912Z"/>
            </g>
          </g>
        </g>
      </g>
    </g>
    <g id="Grupo_158" data-name="Grupo 158">
      <path id="Caminho_70" data-name="Caminho 70" d="M4056.408,2027.765h-.388v-1.586a4.372,4.372,0,0,0-4.371-4.372h-7.232a4.372,4.372,0,0,0-4.372,4.372v1.586h-.388a3.057,3.057,0,0,0,0,6.114h16.751a3.057,3.057,0,1,0,0-6.114Z" fill="none" stroke="#050c35" stroke-width="3"/>
    </g>
  </g>
</svg>
