<svg xmlns="http://www.w3.org/2000/svg" width="73.67" height="73.67" viewBox="0 0 73.67 73.67">
  <g id="Grupo_128" data-name="Grupo 128" transform="translate(-4011.198 -1568.524)">
    <path id="Caminho_57" data-name="Caminho 57" d="M4012.706,1602.518l.835,10.989a2.433,2.433,0,0,0,2.609,2.241l4.689-.357a29.165,29.165,0,0,0,2.988,5.965l-3.044,3.544a2.433,2.433,0,0,0,.261,3.43l8.36,7.18a2.433,2.433,0,0,0,3.43-.261l2.949-3.435a29.191,29.191,0,0,0,6.462,2.2l.337,4.432a2.431,2.431,0,0,0,2.609,2.241l10.989-.835a2.433,2.433,0,0,0,2.241-2.609l-.322-4.23a29.179,29.179,0,0,0,6.319-3.113l3.155,2.71a2.432,2.432,0,0,0,3.43-.26l7.18-8.361a2.433,2.433,0,0,0-.261-3.43l-3.046-2.615a29.174,29.174,0,0,0,2.276-6.831l3.966-.3a2.431,2.431,0,0,0,2.241-2.609l-.835-10.989a2.431,2.431,0,0,0-2.609-2.24l-3.967.3a29.111,29.111,0,0,0-3.282-6.408l2.616-3.046a2.433,2.433,0,0,0-.261-3.43l-8.36-7.18a2.433,2.433,0,0,0-3.43.261l-2.71,3.156a29.132,29.132,0,0,0-6.716-2.122l-.322-4.23a2.432,2.432,0,0,0-2.609-2.241l-10.989.835a2.433,2.433,0,0,0-2.241,2.609l.337,4.433a29.177,29.177,0,0,0-6.055,3.15l-3.434-2.95a2.433,2.433,0,0,0-3.43.261l-7.18,8.36a2.433,2.433,0,0,0,.261,3.43l3.545,3.044a29.146,29.146,0,0,0-2.052,6.347l-4.689.357A2.431,2.431,0,0,0,4012.706,1602.518Zm20.42,3.974a14.949,14.949,0,1,1,16.039,13.774A14.95,14.95,0,0,1,4033.126,1606.492Z" fill="none" stroke="#000" stroke-linecap="round" stroke-linejoin="round" stroke-width="3"/>
  </g>
</svg>
