<svg xmlns="http://www.w3.org/2000/svg" width="196.19" height="54.68" viewBox="0 0 196.19 54.68">
  <g id="Grupo_210" data-name="Grupo 210" transform="translate(-1533.994 -25.04)">
    <path id="Caminho_91" data-name="Caminho 91" d="M1640.847,45.531a5.008,5.008,0,0,1,.942-1.459c.041-.044.083-.089.126-.132a5.016,5.016,0,0,1,1.588-1.066l.02-.009c.057-.023.115-.046.172-.067l.1-.035.072-.024a5.017,5.017,0,0,1,1.592-.256h16.576V40.274H1637.6c-.181,0-.36.008-.537.02-.2.014-.407.034-.606.064a6.656,6.656,0,0,0-1.671.476,7.54,7.54,0,0,0-1.621.974q-.291.227-.569.485c-.073.069-.146.138-.218.21a7.917,7.917,0,0,0-1.671,2.406,6.7,6.7,0,0,0-.521,2.049c-.013.128-.023.257-.029.388s-.009.252-.009.38v9.308c0,.064,0,.128,0,.191a7.019,7.019,0,0,0,.572,2.662c.084.192.178.379.277.562.044.081.089.16.136.238a7.441,7.441,0,0,0,1.224,1.552l.025.023a8.912,8.912,0,0,0,1.11.9,7.794,7.794,0,0,0,1.269.71,7.478,7.478,0,0,0,1.384.454,6.518,6.518,0,0,0,.881.133q.153.012.306.018c.088,0,.177.006.266.006h24.427V62.249h-16.576a4.544,4.544,0,0,1-1.952-.442,5.448,5.448,0,0,1-.881-.522,5.322,5.322,0,0,1-.649-.552,5.5,5.5,0,0,1-1.074-1.53c-.056-.118-.1-.223-.147-.329h.008a4.515,4.515,0,0,1-.3-1.623v-.614h0V53.594h21.574V51.357h-21.574V47.481A4.966,4.966,0,0,1,1640.847,45.531Zm-2.842,11.694a6.98,6.98,0,0,0,.572,2.662c.084.192.177.379.277.562.044.081.089.16.136.238a7.409,7.409,0,0,0,1.224,1.552l.011.01H1637.6a4.544,4.544,0,0,1-1.952-.442,5.447,5.447,0,0,1-.881-.522,5.347,5.347,0,0,1-1.292-1.331,5.4,5.4,0,0,1-.431-.751c-.056-.118-.1-.223-.147-.329h.008a4.511,4.511,0,0,1-.3-1.623v-.614h0V51.576a9.06,9.06,0,0,0,.886.7,7.883,7.883,0,0,0,1.269.71,7.477,7.477,0,0,0,1.384.454,6.677,6.677,0,0,0,.881.133q.153.012.306.018c.088,0,.177.005.266.005H1638v3.44C1638,57.1,1638,57.162,1638.005,57.225Zm-.407-5.868h0a4.544,4.544,0,0,1-1.952-.442,5.4,5.4,0,0,1-.88-.522,5.321,5.321,0,0,1-1.293-1.331,5.457,5.457,0,0,1-.431-.751c-.056-.118-.1-.223-.147-.329h.009a4.58,4.58,0,0,1-.267-1.059,4.913,4.913,0,0,1,.359-1.392,5.031,5.031,0,0,1,.942-1.459c.041-.044.083-.089.126-.132a5.059,5.059,0,0,1,1.588-1.066l.021-.009c.057-.023.114-.046.171-.067l.1-.035.072-.024a5.023,5.023,0,0,1,1.592-.256h2.649l-.021.02a7.9,7.9,0,0,0-1.67,2.406,6.829,6.829,0,0,0-.551,2.437c-.006.126-.008.252-.008.38v3.631Z" fill="#fff"/>
    <path id="Caminho_92" data-name="Caminho 92" d="M1612.584,42.579a5.1,5.1,0,0,1,4.431,3.279l8.847,18.674h2.6l-9.324-19.68c-1.371-2.9-3.822-4.623-6.555-4.623s-5.183,1.728-6.554,4.623l-9.324,19.68h2.6l5.067-10.695a4.633,4.633,0,0,1,8.861,0l5.067,10.695h2.6l-5.544-11.7c-1.371-2.9-3.822-4.623-6.555-4.623a6.388,6.388,0,0,0-1.9.292l1.252-2.642A5.1,5.1,0,0,1,1612.584,42.579Z" fill="#fff"/>
    <path id="Caminho_93" data-name="Caminho 93" d="M1730.175,40.259h-2.465V52.986l-13.979-11.868a3.346,3.346,0,0,0-1.071-.613,3.631,3.631,0,0,0-1.228-.216,2.976,2.976,0,0,0-.945.148,1.917,1.917,0,0,0-.672.375,1.819,1.819,0,0,0-.45.619,2.267,2.267,0,0,0-.171.948v4.126l-6.345-5.387a3.348,3.348,0,0,0-1.071-.613,3.631,3.631,0,0,0-1.228-.216,2.973,2.973,0,0,0-.945.148,1.918,1.918,0,0,0-.672.375,1.832,1.832,0,0,0-.45.619,2.267,2.267,0,0,0-.171.948l.009,22.122h2.465V42.943a.188.188,0,0,1,.31-.143l24.55,20.843a3.373,3.373,0,0,0,1.07.613,3.662,3.662,0,0,0,1.228.216,2.9,2.9,0,0,0,.936-.15,2.013,2.013,0,0,0,.688-.384,1.759,1.759,0,0,0,.444-.609,2.28,2.28,0,0,0,.171-.948Zm-2.987,21.522L1711.668,48.6V42.943a.188.188,0,0,1,.31-.143l15.732,13.356v5.383A.317.317,0,0,1,1727.188,61.781Z" fill="#fff"/>
    <path id="Caminho_94" data-name="Caminho 94" d="M1695.633,44.909a8.238,8.238,0,0,0-4.078-4.075,6.984,6.984,0,0,0-2.815-.56h-17.006a6.975,6.975,0,0,0-2.814.56,8.224,8.224,0,0,0-4.079,4.075,6.972,6.972,0,0,0-.559,2.817v9.308a7.074,7.074,0,0,0,.573,2.852,7.393,7.393,0,0,0,1.637,2.352,8.865,8.865,0,0,0,1.136.928,7.794,7.794,0,0,0,1.269.71,7.492,7.492,0,0,0,1.383.454,6.685,6.685,0,0,0,1.454.157h17.006a6.685,6.685,0,0,0,1.454-.157,7.458,7.458,0,0,0,1.382-.454,7.886,7.886,0,0,0,1.27-.71,8.856,8.856,0,0,0,1.135-.927,7.416,7.416,0,0,0,1.637-2.352,7.066,7.066,0,0,0,.574-2.853V47.726A6.972,6.972,0,0,0,1695.633,44.909Zm-4.941-2.035a4.98,4.98,0,0,1,3.046,4.607v9.156h-15.2a4.54,4.54,0,0,1-1.951-.442,5.426,5.426,0,0,1-2.6-2.6,4.542,4.542,0,0,1-.441-1.952V42.483h15.194A4.967,4.967,0,0,1,1690.692,42.874Zm1.529,17.859a5.41,5.41,0,0,1-1.529,1.074,4.544,4.544,0,0,1-1.952.442h-17.006a4.55,4.55,0,0,1-1.951-.441,5.422,5.422,0,0,1-2.6-2.6,4.541,4.541,0,0,1-.442-1.952v-9.77a4.971,4.971,0,0,1,3.048-4.608,4.876,4.876,0,0,1,1.307-.345v8.894a7.058,7.058,0,0,0,.574,2.852,7.417,7.417,0,0,0,1.636,2.352,9,9,0,0,0,1.136.928,7.9,7.9,0,0,0,1.269.709,7.327,7.327,0,0,0,1.384.454,6.67,6.67,0,0,0,1.453.157h14.9c-.046.106-.091.211-.147.329A5.444,5.444,0,0,1,1692.221,60.733Z" fill="#fff"/>
    <path id="Caminho_95" data-name="Caminho 95" d="M1581.053,25.04h-39.439a7.629,7.629,0,0,0-7.62,7.62V72.1a7.628,7.628,0,0,0,7.62,7.62h39.439a7.628,7.628,0,0,0,7.62-7.62V32.66A7.629,7.629,0,0,0,1581.053,25.04Zm-44.86,7.62a5.426,5.426,0,0,1,5.421-5.42h9.1V45.776h-14.522Zm0,15.315h14.522v8.479a7.616,7.616,0,0,0,.368,2.341,7.616,7.616,0,0,0-1.3-.112h-13.591ZM1555.2,77.521h-13.59a5.427,5.427,0,0,1-5.421-5.421V60.882h13.591a5.426,5.426,0,0,1,5.42,5.421Zm12.907,0H1557.4V66.3a7.58,7.58,0,0,0-.368-2.34,7.635,7.635,0,0,0,1.3.111h9.776Zm0-15.646h-9.776a5.427,5.427,0,0,1-5.421-5.421V47.975h9.777a5.426,5.426,0,0,1,5.42,5.421ZM1586.474,72.1a5.427,5.427,0,0,1-5.421,5.421h-10.742V64.074h16.163Zm-16.163-10.225V53.4a7.629,7.629,0,0,0-7.62-7.62h-9.777V27.24h28.139a5.426,5.426,0,0,1,5.421,5.42V61.875Z" fill="#f2810f"/>
  </g>
</svg>
