<svg xmlns="http://www.w3.org/2000/svg" width="56.087" height="64.657" viewBox="0 0 56.087 64.657">
  <g id="Grupo_127" data-name="Grupo 127" transform="translate(-4019.989 -1812.222)">
    <path id="Caminho_55" data-name="Caminho 55" d="M4048.033,1813.722a1.016,1.016,0,0,0-.85.459c-2.333,3.477-7.019,5.853-12.422,5.853a15.445,15.445,0,0,1-11.519-4.69.972.972,0,0,0-.735-.335,1.01,1.01,0,0,0-1.018,1.013v38.244a8.794,8.794,0,0,0,3.716,7.427l19.937,12.836a5.34,5.34,0,0,0,5.781,0l19.937-12.836a8.794,8.794,0,0,0,3.716-7.427v-38.244a1.01,1.01,0,0,0-1.018-1.013.972.972,0,0,0-.735.335,15.444,15.444,0,0,1-11.518,4.69c-5.4,0-10.09-2.376-12.423-5.853a1.016,1.016,0,0,0-.849-.459Z" fill="none" stroke="#050c35" stroke-width="3"/>
    <g id="Grupo_126" data-name="Grupo 126">
      <g id="Grupo_125" data-name="Grupo 125">
        <path id="Caminho_56" data-name="Caminho 56" d="M4061.916,1834.4a1.571,1.571,0,0,0-2.22-.118l-16.623,14.95-8.087-5.154a.8.8,0,0,0-1.048,1.2l7.713,9.146a2.169,2.169,0,0,0,.179.19,2.246,2.246,0,0,0,3.175-.1l.177-.188,16.711-17.8A1.578,1.578,0,0,0,4061.916,1834.4Z" fill="#050c35"/>
      </g>
    </g>
  </g>
</svg>
