<svg xmlns="http://www.w3.org/2000/svg" width="82.455" height="82.456" viewBox="0 0 82.455 82.456">
  <path id="Caminho_58" data-name="Caminho 58" d="M4015.083,1414.331a23.111,23.111,0,0,1-5.5-23.917,1.524,1.524,0,0,1,2.516-.583l9.948,9.949a3.875,3.875,0,0,0,5.465,0l5.7-5.7a3.876,3.876,0,0,0,0-5.465l-9.948-9.948a1.522,1.522,0,0,1,.577-2.514,23.1,23.1,0,0,1,28.892,30.737l33.886,33.886a3.875,3.875,0,0,1,0,5.464l-6.95,6.95a3.876,3.876,0,0,1-5.464,0l-33.871-33.872A23.116,23.116,0,0,1,4015.083,1414.331Z" transform="translate(-4006.796 -1373.358)" fill="none" stroke="#000" stroke-linecap="round" stroke-linejoin="round" stroke-width="3"/>
</svg>
